<svg xmlns="http://www.w3.org/2000/svg" xmlns:xlink="http://www.w3.org/1999/xlink" width="96" zoomAndPan="magnify" viewBox="0 0 72 72" height="96" preserveAspectRatio="xMidYMid meet" version="1.2"><defs/><g id="1668e8dd41"><rect x="0" width="72" y="0" height="72" style="fill:#ffffff;fill-opacity:1;stroke:none;"/><rect x="0" width="72" y="0" height="72" style="fill:#000000;fill-opacity:1;stroke:none;"/><g style="fill:#ffffff;fill-opacity:1;"><g transform="translate(0.328125, 45)"><path style="stroke:none" d="M 1.0625 5.6875 C 0.9375 5.6875 0.832031 5.628906 0.75 5.515625 C 0.664062 5.410156 0.625 5.285156 0.625 5.140625 C 0.644531 4.898438 0.695312 4.753906 0.78125 4.703125 C 0.863281 4.660156 1.019531 4.640625 1.25 4.640625 C 1.707031 4.640625 2.035156 4.554688 2.234375 4.390625 C 2.441406 4.234375 2.566406 4.035156 2.609375 3.796875 C 2.648438 3.554688 2.671875 3.21875 2.671875 2.78125 L 2.671875 -9.0625 C 2.671875 -9.539062 2.65625 -9.890625 2.625 -10.109375 C 2.601562 -10.328125 2.492188 -10.515625 2.296875 -10.671875 C 2.097656 -10.835938 1.757812 -10.921875 1.28125 -10.921875 C 1.0625 -10.921875 0.894531 -10.953125 0.78125 -11.015625 C 0.675781 -11.078125 0.625 -11.226562 0.625 -11.46875 C 0.625 -11.582031 0.660156 -11.6875 0.734375 -11.78125 C 0.804688 -11.882812 0.914062 -11.945312 1.0625 -11.96875 C 2.25 -12.144531 3.222656 -12.378906 3.984375 -12.671875 C 4.296875 -12.765625 4.503906 -12.820312 4.609375 -12.84375 L 4.703125 -12.84375 C 4.992188 -12.84375 5.140625 -12.664062 5.140625 -12.3125 L 5.140625 -11 L 5.21875 -11 C 5.75 -11.5 6.367188 -11.90625 7.078125 -12.21875 C 7.785156 -12.539062 8.457031 -12.703125 9.09375 -12.703125 C 10.1875 -12.703125 11.164062 -12.425781 12.03125 -11.875 C 12.894531 -11.332031 13.570312 -10.5625 14.0625 -9.5625 C 14.550781 -8.570312 14.796875 -7.453125 14.796875 -6.203125 C 14.796875 -4.921875 14.503906 -3.785156 13.921875 -2.796875 C 13.347656 -1.804688 12.578125 -1.035156 11.609375 -0.484375 C 10.640625 0.0546875 9.617188 0.328125 8.546875 0.328125 C 7.796875 0.328125 7.164062 0.25 6.65625 0.09375 C 6.15625 -0.0625 5.691406 -0.265625 5.265625 -0.515625 L 5.15625 -0.515625 L 5.15625 2.78125 C 5.15625 3.21875 5.175781 3.554688 5.21875 3.796875 C 5.269531 4.035156 5.394531 4.234375 5.59375 4.390625 C 5.800781 4.554688 6.128906 4.640625 6.578125 4.640625 L 6.75 4.640625 C 6.894531 4.640625 7.003906 4.664062 7.078125 4.71875 C 7.148438 4.78125 7.191406 4.921875 7.203125 5.140625 C 7.203125 5.285156 7.164062 5.410156 7.09375 5.515625 C 7.019531 5.628906 6.914062 5.6875 6.78125 5.6875 C 5.71875 5.625 4.757812 5.59375 3.90625 5.59375 C 3.082031 5.59375 2.132812 5.625 1.0625 5.6875 Z M 8.328125 -0.59375 C 9.609375 -0.59375 10.539062 -1.15625 11.125 -2.28125 C 11.71875 -3.414062 12.015625 -4.695312 12.015625 -6.125 C 12.015625 -7.539062 11.6875 -8.757812 11.03125 -9.78125 C 10.375 -10.8125 9.398438 -11.328125 8.109375 -11.328125 C 7.472656 -11.328125 6.929688 -11.203125 6.484375 -10.953125 C 6.035156 -10.710938 5.59375 -10.367188 5.15625 -9.921875 L 5.15625 -2.59375 C 5.375 -2.050781 5.757812 -1.582031 6.3125 -1.1875 C 6.875 -0.789062 7.546875 -0.59375 8.328125 -0.59375 Z M 8.328125 -0.59375 "/></g></g><g style="fill:#ffffff;fill-opacity:1;"><g transform="translate(16.055614, 45)"><path style="stroke:none" d="M 1.0625 0.078125 C 0.914062 0.078125 0.804688 0.0234375 0.734375 -0.078125 C 0.660156 -0.191406 0.625 -0.320312 0.625 -0.46875 C 0.644531 -0.695312 0.695312 -0.832031 0.78125 -0.875 C 0.863281 -0.925781 1.019531 -0.953125 1.25 -0.953125 C 1.726562 -0.953125 2.066406 -1.035156 2.265625 -1.203125 C 2.460938 -1.367188 2.578125 -1.5625 2.609375 -1.78125 C 2.648438 -2 2.671875 -2.34375 2.671875 -2.8125 L 2.671875 -16.109375 C 2.671875 -16.585938 2.65625 -16.9375 2.625 -17.15625 C 2.601562 -17.375 2.492188 -17.5625 2.296875 -17.71875 C 2.097656 -17.882812 1.757812 -17.96875 1.28125 -17.96875 C 1.0625 -17.96875 0.894531 -18 0.78125 -18.0625 C 0.675781 -18.125 0.625 -18.273438 0.625 -18.515625 C 0.625 -18.628906 0.660156 -18.734375 0.734375 -18.828125 C 0.804688 -18.929688 0.914062 -18.992188 1.0625 -19.015625 C 2.207031 -19.171875 3.191406 -19.40625 4.015625 -19.71875 C 4.265625 -19.8125 4.472656 -19.867188 4.640625 -19.890625 L 4.71875 -19.890625 C 5.007812 -19.890625 5.15625 -19.710938 5.15625 -19.359375 L 5.15625 -6.875 C 5.957031 -7.039062 6.613281 -7.378906 7.125 -7.890625 L 9.421875 -10.25 C 9.460938 -10.300781 9.570312 -10.421875 9.75 -10.609375 C 9.9375 -10.796875 10.03125 -10.957031 10.03125 -11.09375 C 10.03125 -11.363281 9.609375 -11.472656 8.765625 -11.421875 C 8.566406 -11.453125 8.457031 -11.613281 8.4375 -11.90625 C 8.4375 -12.050781 8.476562 -12.175781 8.5625 -12.28125 C 8.644531 -12.394531 8.75 -12.453125 8.875 -12.453125 C 9.695312 -12.398438 10.695312 -12.375 11.875 -12.375 C 12.132812 -12.375 12.535156 -12.390625 13.078125 -12.421875 L 13.703125 -12.453125 C 13.835938 -12.453125 13.941406 -12.394531 14.015625 -12.28125 C 14.097656 -12.175781 14.140625 -12.050781 14.140625 -11.90625 C 14.128906 -11.6875 14.085938 -11.550781 14.015625 -11.5 C 13.941406 -11.445312 13.832031 -11.421875 13.6875 -11.421875 C 13.007812 -11.421875 12.453125 -11.300781 12.015625 -11.0625 C 11.578125 -10.820312 11.066406 -10.40625 10.484375 -9.8125 L 8.1875 -7.453125 C 8.664062 -6.816406 9.671875 -5.648438 11.203125 -3.953125 C 11.890625 -3.191406 12.242188 -2.796875 12.265625 -2.765625 C 12.921875 -2.066406 13.40625 -1.597656 13.71875 -1.359375 C 14.039062 -1.128906 14.4375 -0.992188 14.90625 -0.953125 C 14.945312 -0.953125 15.023438 -0.945312 15.140625 -0.9375 C 15.265625 -0.925781 15.359375 -0.882812 15.421875 -0.8125 C 15.484375 -0.738281 15.515625 -0.625 15.515625 -0.46875 C 15.515625 -0.101562 15.367188 0.078125 15.078125 0.078125 C 14.910156 0.078125 14.632812 0.0625 14.25 0.03125 C 13.875 0.0078125 12.9375 0 11.4375 0 C 10.894531 -0.5625 9.628906 -2 7.640625 -4.3125 C 7.023438 -5.039062 6.738281 -5.390625 6.78125 -5.359375 C 6.25 -5.921875 5.707031 -6.175781 5.15625 -6.125 L 5.15625 -2.8125 C 5.15625 -2.34375 5.171875 -2 5.203125 -1.78125 C 5.234375 -1.5625 5.347656 -1.367188 5.546875 -1.203125 C 5.742188 -1.035156 6.082031 -0.953125 6.5625 -0.953125 L 6.71875 -0.953125 C 6.882812 -0.953125 7.003906 -0.925781 7.078125 -0.875 C 7.148438 -0.820312 7.191406 -0.6875 7.203125 -0.46875 C 7.203125 -0.320312 7.160156 -0.191406 7.078125 -0.078125 C 7.003906 0.0234375 6.90625 0.078125 6.78125 0.078125 C 5.71875 0.0234375 4.757812 0 3.90625 0 C 3.082031 0 2.132812 0.0234375 1.0625 0.078125 Z M 1.0625 0.078125 "/></g></g><g style="fill:#ffffff;fill-opacity:1;"><g transform="translate(31.537387, 45)"><path style="stroke:none" d="M 4.390625 0.546875 C 4.160156 0.546875 3.953125 0.441406 3.765625 0.234375 C 3.585938 0.0234375 3.5 -0.257812 3.5 -0.625 C 3.5 -1.425781 3.945312 -2.734375 4.84375 -4.546875 C 5.75 -6.359375 6.929688 -8.578125 8.390625 -11.203125 L 9.015625 -12.3125 L 4.234375 -12.3125 C 3.742188 -12.3125 3.375 -12.273438 3.125 -12.203125 C 2.882812 -12.128906 2.6875 -11.957031 2.53125 -11.6875 C 2.375 -11.414062 2.257812 -10.988281 2.1875 -10.40625 C 2.144531 -10.257812 2.082031 -10.15625 2 -10.09375 C 1.925781 -10.03125 1.78125 -10 1.5625 -10 C 1.25 -10 1.09375 -10.148438 1.09375 -10.453125 L 1.203125 -13.65625 C 1.203125 -14.050781 1.46875 -14.25 2 -14.25 L 10.328125 -14.25 C 10.847656 -14.25 11.109375 -14.078125 11.109375 -13.734375 C 11.109375 -13.460938 10.910156 -12.988281 10.515625 -12.3125 C 9.835938 -11.1875 9.210938 -9.925781 8.640625 -8.53125 C 8.066406 -7.144531 7.4375 -5.492188 6.75 -3.578125 C 6.1875 -2.023438 5.773438 -0.941406 5.515625 -0.328125 C 5.242188 0.253906 4.867188 0.546875 4.390625 0.546875 Z M 4.390625 0.546875 "/></g></g><g style="fill:#39cccc;fill-opacity:1;"><g transform="translate(41.285155, 45)"><path style="stroke:none" d="M 3 0.328125 C 2.507812 0.328125 2.097656 0.171875 1.765625 -0.140625 C 1.441406 -0.460938 1.28125 -0.878906 1.28125 -1.390625 C 1.28125 -1.867188 1.441406 -2.269531 1.765625 -2.59375 C 2.097656 -2.925781 2.519531 -3.09375 3.03125 -3.09375 C 3.519531 -3.09375 3.929688 -2.925781 4.265625 -2.59375 C 4.609375 -2.269531 4.78125 -1.867188 4.78125 -1.390625 C 4.78125 -0.878906 4.609375 -0.460938 4.265625 -0.140625 C 3.929688 0.171875 3.507812 0.328125 3 0.328125 Z M 3 0.328125 "/></g></g><g style="fill:#ffffff;fill-opacity:1;"><g transform="translate(47.355467, 45)"><path style="stroke:none" d="M 1.34375 0.078125 C 1.207031 0.078125 1.097656 0.0234375 1.015625 -0.078125 C 0.941406 -0.191406 0.90625 -0.320312 0.90625 -0.46875 C 0.914062 -0.695312 0.96875 -0.832031 1.0625 -0.875 C 1.15625 -0.925781 1.320312 -0.953125 1.5625 -0.953125 C 2.03125 -0.953125 2.363281 -1.035156 2.5625 -1.203125 C 2.769531 -1.367188 2.882812 -1.5625 2.90625 -1.78125 C 2.9375 -2 2.953125 -2.34375 2.953125 -2.8125 L 2.953125 -9.0625 C 2.953125 -9.539062 2.9375 -9.890625 2.90625 -10.109375 C 2.882812 -10.328125 2.769531 -10.515625 2.5625 -10.671875 C 2.363281 -10.835938 2.03125 -10.921875 1.5625 -10.921875 C 1.34375 -10.921875 1.175781 -10.953125 1.0625 -11.015625 C 0.957031 -11.078125 0.90625 -11.226562 0.90625 -11.46875 C 0.90625 -11.582031 0.941406 -11.6875 1.015625 -11.78125 C 1.085938 -11.882812 1.195312 -11.945312 1.34375 -11.96875 C 2.488281 -12.125 3.46875 -12.359375 4.28125 -12.671875 C 4.539062 -12.765625 4.753906 -12.820312 4.921875 -12.84375 L 5 -12.84375 C 5.289062 -12.84375 5.4375 -12.664062 5.4375 -12.3125 L 5.4375 -2.8125 C 5.4375 -2.34375 5.453125 -2 5.484375 -1.78125 C 5.523438 -1.5625 5.644531 -1.367188 5.84375 -1.203125 C 6.039062 -1.035156 6.378906 -0.953125 6.859375 -0.953125 L 7.015625 -0.953125 C 7.160156 -0.953125 7.269531 -0.925781 7.34375 -0.875 C 7.414062 -0.820312 7.460938 -0.6875 7.484375 -0.46875 C 7.484375 -0.320312 7.445312 -0.191406 7.375 -0.078125 C 7.300781 0.0234375 7.191406 0.078125 7.046875 0.078125 C 5.992188 0.0234375 5.035156 0 4.171875 0 C 3.359375 0 2.414062 0.0234375 1.34375 0.078125 Z M 4.03125 -15.875 C 3.519531 -15.875 3.09375 -16.03125 2.75 -16.34375 C 2.40625 -16.664062 2.234375 -17.0625 2.234375 -17.53125 C 2.234375 -17.945312 2.441406 -18.316406 2.859375 -18.640625 C 3.273438 -18.972656 3.75 -19.140625 4.28125 -19.140625 C 4.738281 -19.140625 5.113281 -18.976562 5.40625 -18.65625 C 5.695312 -18.34375 5.84375 -17.941406 5.84375 -17.453125 C 5.84375 -17.015625 5.664062 -16.640625 5.3125 -16.328125 C 4.96875 -16.023438 4.539062 -15.875 4.03125 -15.875 Z M 4.03125 -15.875 "/></g></g><g style="fill:#ffffff;fill-opacity:1;"><g transform="translate(55.301122, 45)"><path style="stroke:none" d="M 1.34375 0.078125 C 1.207031 0.078125 1.097656 0.0234375 1.015625 -0.078125 C 0.941406 -0.191406 0.90625 -0.320312 0.90625 -0.46875 C 0.914062 -0.695312 0.96875 -0.832031 1.0625 -0.875 C 1.15625 -0.925781 1.320312 -0.953125 1.5625 -0.953125 C 2.03125 -0.953125 2.363281 -1.035156 2.5625 -1.203125 C 2.769531 -1.367188 2.882812 -1.5625 2.90625 -1.78125 C 2.9375 -2 2.953125 -2.34375 2.953125 -2.8125 L 2.953125 -9.0625 C 2.953125 -9.539062 2.9375 -9.890625 2.90625 -10.109375 C 2.882812 -10.328125 2.769531 -10.515625 2.5625 -10.671875 C 2.363281 -10.835938 2.03125 -10.921875 1.5625 -10.921875 C 1.34375 -10.921875 1.175781 -10.953125 1.0625 -11.015625 C 0.957031 -11.078125 0.90625 -11.226562 0.90625 -11.46875 C 0.90625 -11.582031 0.941406 -11.6875 1.015625 -11.78125 C 1.085938 -11.882812 1.195312 -11.945312 1.34375 -11.96875 C 2.519531 -12.144531 3.492188 -12.378906 4.265625 -12.671875 C 4.566406 -12.765625 4.773438 -12.820312 4.890625 -12.84375 L 4.96875 -12.84375 C 5.257812 -12.84375 5.40625 -12.664062 5.40625 -12.3125 L 5.40625 -10.59375 L 5.484375 -10.59375 C 6.015625 -11.082031 6.441406 -11.457031 6.765625 -11.71875 C 7.097656 -11.988281 7.523438 -12.21875 8.046875 -12.40625 C 8.566406 -12.601562 9.179688 -12.703125 9.890625 -12.703125 C 11.128906 -12.703125 12.109375 -12.328125 12.828125 -11.578125 C 13.554688 -10.828125 13.921875 -9.84375 13.921875 -8.625 L 13.921875 -2.8125 C 13.921875 -2.34375 13.9375 -2 13.96875 -1.78125 C 14.007812 -1.5625 14.128906 -1.367188 14.328125 -1.203125 C 14.535156 -1.035156 14.875 -0.953125 15.34375 -0.953125 L 15.515625 -0.953125 C 15.660156 -0.953125 15.769531 -0.925781 15.84375 -0.875 C 15.914062 -0.820312 15.960938 -0.6875 15.984375 -0.46875 C 15.984375 -0.320312 15.941406 -0.191406 15.859375 -0.078125 C 15.773438 0.0234375 15.671875 0.078125 15.546875 0.078125 C 14.484375 0.0234375 13.523438 0 12.671875 0 C 11.847656 0 10.898438 0.0234375 9.828125 0.078125 C 9.703125 0.078125 9.597656 0.0234375 9.515625 -0.078125 C 9.429688 -0.191406 9.390625 -0.320312 9.390625 -0.46875 C 9.410156 -0.695312 9.460938 -0.832031 9.546875 -0.875 C 9.628906 -0.925781 9.789062 -0.953125 10.03125 -0.953125 C 10.5 -0.953125 10.832031 -1.035156 11.03125 -1.203125 C 11.226562 -1.367188 11.34375 -1.5625 11.375 -1.78125 C 11.414062 -2 11.4375 -2.34375 11.4375 -2.8125 L 11.4375 -8.609375 C 11.4375 -9.441406 11.171875 -10.082031 10.640625 -10.53125 C 10.117188 -10.976562 9.515625 -11.203125 8.828125 -11.203125 C 7.984375 -11.203125 7.257812 -10.992188 6.65625 -10.578125 C 6.0625 -10.171875 5.65625 -9.75 5.4375 -9.3125 L 5.4375 -2.8125 C 5.4375 -2.34375 5.453125 -2 5.484375 -1.78125 C 5.523438 -1.5625 5.644531 -1.367188 5.84375 -1.203125 C 6.039062 -1.035156 6.378906 -0.953125 6.859375 -0.953125 L 7.015625 -0.953125 C 7.160156 -0.953125 7.269531 -0.925781 7.34375 -0.875 C 7.414062 -0.820312 7.460938 -0.6875 7.484375 -0.46875 C 7.484375 -0.320312 7.445312 -0.191406 7.375 -0.078125 C 7.300781 0.0234375 7.191406 0.078125 7.046875 0.078125 C 5.992188 0.0234375 5.035156 0 4.171875 0 C 3.359375 0 2.414062 0.0234375 1.34375 0.078125 Z M 1.34375 0.078125 "/></g></g></g></svg>