<svg xmlns="http://www.w3.org/2000/svg" xmlns:xlink="http://www.w3.org/1999/xlink" width="500" zoomAndPan="magnify" viewBox="0 0 375 157.92" height="200" preserveAspectRatio="xMidYMid meet" version="1.2"><defs/><g id="81a6476936"><g style="fill:#001f3f;fill-opacity:1;"><g transform="translate(1.840146, 112.027604)"><path style="stroke:none" d="M 5.546875 29.5625 C 4.878906 29.5625 4.332031 29.273438 3.90625 28.703125 C 3.476562 28.140625 3.265625 27.476562 3.265625 26.71875 C 3.359375 25.488281 3.617188 24.753906 4.046875 24.515625 C 4.472656 24.285156 5.304688 24.171875 6.546875 24.171875 C 8.910156 24.171875 10.613281 23.742188 11.65625 22.890625 C 12.695312 22.035156 13.335938 20.988281 13.578125 19.75 C 13.816406 18.519531 13.9375 16.769531 13.9375 14.5 L 13.9375 -47.203125 C 13.9375 -49.660156 13.863281 -51.457031 13.71875 -52.59375 C 13.570312 -53.726562 12.976562 -54.722656 11.9375 -55.578125 C 10.894531 -56.429688 9.144531 -56.859375 6.6875 -56.859375 C 5.539062 -56.859375 4.679688 -57.023438 4.109375 -57.359375 C 3.546875 -57.691406 3.265625 -58.472656 3.265625 -59.703125 C 3.265625 -60.273438 3.453125 -60.820312 3.828125 -61.34375 C 4.210938 -61.863281 4.785156 -62.171875 5.546875 -62.265625 C 11.703125 -63.210938 16.769531 -64.441406 20.75 -65.953125 C 22.363281 -66.429688 23.457031 -66.71875 24.03125 -66.8125 L 24.453125 -66.8125 C 25.960938 -66.8125 26.71875 -65.910156 26.71875 -64.109375 L 26.71875 -57.28125 L 27.15625 -57.28125 C 29.90625 -59.84375 33.125 -61.953125 36.8125 -63.609375 C 40.507812 -65.273438 44.019531 -66.109375 47.34375 -66.109375 C 53.03125 -66.109375 58.125 -64.6875 62.625 -61.84375 C 67.125 -59 70.648438 -54.992188 73.203125 -49.828125 C 75.765625 -44.660156 77.046875 -38.804688 77.046875 -32.265625 C 77.046875 -25.628906 75.53125 -19.726562 72.5 -14.5625 C 69.46875 -9.40625 65.4375 -5.40625 60.40625 -2.5625 C 55.382812 0.28125 50.082031 1.703125 44.5 1.703125 C 40.613281 1.703125 37.34375 1.300781 34.6875 0.5 C 32.03125 -0.300781 29.613281 -1.367188 27.4375 -2.703125 L 26.875 -2.703125 L 26.875 14.5 C 26.875 16.769531 26.988281 18.519531 27.21875 19.75 C 27.457031 20.988281 28.097656 22.035156 29.140625 22.890625 C 30.179688 23.742188 31.890625 24.171875 34.265625 24.171875 L 35.109375 24.171875 C 35.867188 24.171875 36.4375 24.3125 36.8125 24.59375 C 37.195312 24.875 37.4375 25.582031 37.53125 26.71875 C 37.53125 27.476562 37.335938 28.140625 36.953125 28.703125 C 36.578125 29.273438 36.007812 29.5625 35.25 29.5625 C 29.757812 29.28125 24.785156 29.140625 20.328125 29.140625 C 16.066406 29.140625 11.140625 29.28125 5.546875 29.5625 Z M 43.359375 -3.125 C 49.992188 -3.125 54.847656 -6.0625 57.921875 -11.9375 C 61.003906 -17.8125 62.546875 -24.445312 62.546875 -31.84375 C 62.546875 -39.238281 60.835938 -45.613281 57.421875 -50.96875 C 54.015625 -56.320312 48.945312 -59 42.21875 -59 C 38.90625 -59 36.085938 -58.359375 33.765625 -57.078125 C 31.441406 -55.796875 29.144531 -53.972656 26.875 -51.609375 L 26.875 -13.5 C 28.007812 -10.65625 30.019531 -8.210938 32.90625 -6.171875 C 35.800781 -4.140625 39.285156 -3.125 43.359375 -3.125 Z M 43.359375 -3.125 "/></g></g><g style="fill:#001f3f;fill-opacity:1;"><g transform="translate(83.716584, 112.027604)"><path style="stroke:none" d="M 5.546875 0.421875 C 4.785156 0.421875 4.210938 0.140625 3.828125 -0.421875 C 3.453125 -0.992188 3.265625 -1.660156 3.265625 -2.421875 C 3.359375 -3.648438 3.617188 -4.378906 4.046875 -4.609375 C 4.472656 -4.847656 5.304688 -4.96875 6.546875 -4.96875 C 9.003906 -4.96875 10.753906 -5.394531 11.796875 -6.25 C 12.835938 -7.101562 13.453125 -8.097656 13.640625 -9.234375 C 13.835938 -10.378906 13.9375 -12.179688 13.9375 -14.640625 L 13.9375 -83.875 C 13.9375 -86.332031 13.863281 -88.128906 13.71875 -89.265625 C 13.570312 -90.410156 12.976562 -91.40625 11.9375 -92.25 C 10.894531 -93.101562 9.144531 -93.53125 6.6875 -93.53125 C 5.539062 -93.53125 4.679688 -93.695312 4.109375 -94.03125 C 3.546875 -94.363281 3.265625 -95.144531 3.265625 -96.375 C 3.265625 -96.945312 3.453125 -97.492188 3.828125 -98.015625 C 4.210938 -98.535156 4.785156 -98.84375 5.546875 -98.9375 C 11.515625 -99.789062 16.628906 -101.023438 20.890625 -102.640625 C 22.222656 -103.109375 23.316406 -103.390625 24.171875 -103.484375 L 24.59375 -103.484375 C 26.113281 -103.484375 26.875 -102.582031 26.875 -100.78125 L 26.875 -35.828125 C 31.039062 -36.679688 34.453125 -38.429688 37.109375 -41.078125 L 49.046875 -53.3125 C 49.234375 -53.59375 49.800781 -54.226562 50.75 -55.21875 C 51.695312 -56.21875 52.171875 -57.050781 52.171875 -57.71875 C 52.171875 -59.132812 49.988281 -59.703125 45.625 -59.421875 C 44.582031 -59.609375 44.015625 -60.460938 43.921875 -61.984375 C 43.921875 -62.742188 44.132812 -63.40625 44.5625 -63.96875 C 44.988281 -64.539062 45.535156 -64.828125 46.203125 -64.828125 C 50.460938 -64.535156 55.675781 -64.390625 61.84375 -64.390625 C 63.164062 -64.390625 65.25 -64.488281 68.09375 -64.6875 L 71.359375 -64.828125 C 72.023438 -64.828125 72.570312 -64.539062 73 -63.96875 C 73.425781 -63.40625 73.640625 -62.742188 73.640625 -61.984375 C 73.546875 -60.847656 73.304688 -60.132812 72.921875 -59.84375 C 72.546875 -59.5625 71.976562 -59.421875 71.21875 -59.421875 C 67.707031 -59.421875 64.816406 -58.800781 62.546875 -57.5625 C 60.273438 -56.332031 57.625 -54.15625 54.59375 -51.03125 L 42.640625 -38.8125 C 45.109375 -35.488281 50.320312 -29.421875 58.28125 -20.609375 C 61.882812 -16.628906 63.734375 -14.546875 63.828125 -14.359375 C 67.242188 -10.753906 69.78125 -8.335938 71.4375 -7.109375 C 73.09375 -5.878906 75.15625 -5.164062 77.625 -4.96875 C 77.8125 -4.96875 78.210938 -4.941406 78.828125 -4.890625 C 79.441406 -4.847656 79.914062 -4.640625 80.25 -4.265625 C 80.582031 -3.890625 80.75 -3.273438 80.75 -2.421875 C 80.75 -0.523438 79.988281 0.421875 78.46875 0.421875 C 77.613281 0.421875 76.191406 0.347656 74.203125 0.203125 C 72.210938 0.0664062 67.332031 0 59.5625 0 C 56.71875 -2.9375 50.128906 -10.421875 39.796875 -22.453125 C 36.578125 -26.242188 35.0625 -28.046875 35.25 -27.859375 C 32.5 -30.796875 29.707031 -32.125 26.875 -31.84375 L 26.875 -14.640625 C 26.875 -12.179688 26.941406 -10.378906 27.078125 -9.234375 C 27.222656 -8.097656 27.816406 -7.101562 28.859375 -6.25 C 29.898438 -5.394531 31.65625 -4.96875 34.125 -4.96875 L 34.96875 -4.96875 C 35.820312 -4.96875 36.4375 -4.828125 36.8125 -4.546875 C 37.195312 -4.265625 37.4375 -3.554688 37.53125 -2.421875 C 37.53125 -1.660156 37.316406 -0.992188 36.890625 -0.421875 C 36.460938 0.140625 35.914062 0.421875 35.25 0.421875 C 29.757812 0.140625 24.785156 0 20.328125 0 C 16.066406 0 11.140625 0.140625 5.546875 0.421875 Z M 5.546875 0.421875 "/></g></g><g style="fill:#001f3f;fill-opacity:1;"><g transform="translate(164.313798, 112.027604)"><path style="stroke:none" d="M 22.890625 2.84375 C 21.660156 2.84375 20.570312 2.296875 19.625 1.203125 C 18.675781 0.117188 18.203125 -1.367188 18.203125 -3.265625 C 18.203125 -7.441406 20.546875 -14.242188 25.234375 -23.671875 C 29.921875 -33.097656 36.054688 -44.632812 43.640625 -58.28125 L 46.90625 -64.109375 L 22.03125 -64.109375 C 19.476562 -64.109375 17.5625 -63.914062 16.28125 -63.53125 C 15 -63.15625 13.953125 -62.253906 13.140625 -60.828125 C 12.335938 -59.410156 11.75 -57.1875 11.375 -54.15625 C 11.1875 -53.40625 10.878906 -52.863281 10.453125 -52.53125 C 10.023438 -52.195312 9.242188 -52.03125 8.109375 -52.03125 C 6.492188 -52.03125 5.6875 -52.835938 5.6875 -54.453125 L 6.25 -71.078125 C 6.25 -73.160156 7.625 -74.203125 10.375 -74.203125 L 53.734375 -74.203125 C 56.484375 -74.203125 57.859375 -73.300781 57.859375 -71.5 C 57.859375 -70.082031 56.816406 -67.617188 54.734375 -64.109375 C 51.222656 -58.234375 47.972656 -51.671875 44.984375 -44.421875 C 42.003906 -37.171875 38.710938 -28.570312 35.109375 -18.625 C 32.171875 -10.570312 30.039062 -4.929688 28.71875 -1.703125 C 27.289062 1.328125 25.347656 2.84375 22.890625 2.84375 Z M 22.890625 2.84375 "/></g></g><g style="fill:#39cccc;fill-opacity:1;"><g transform="translate(215.060252, 112.027604)"><path style="stroke:none" d="M 15.640625 1.703125 C 13.078125 1.703125 10.941406 0.875 9.234375 -0.78125 C 7.535156 -2.4375 6.6875 -4.59375 6.6875 -7.25 C 6.6875 -9.71875 7.535156 -11.800781 9.234375 -13.5 C 10.941406 -15.207031 13.125 -16.0625 15.78125 -16.0625 C 18.34375 -16.0625 20.5 -15.207031 22.25 -13.5 C 24 -11.800781 24.875 -9.71875 24.875 -7.25 C 24.875 -4.59375 24 -2.4375 22.25 -0.78125 C 20.5 0.875 18.296875 1.703125 15.640625 1.703125 Z M 15.640625 1.703125 "/></g></g><g style="fill:#001f3f;fill-opacity:1;"><g transform="translate(246.626287, 112.027604)"><path style="stroke:none" d="M 6.96875 0.421875 C 6.300781 0.421875 5.753906 0.140625 5.328125 -0.421875 C 4.898438 -0.992188 4.6875 -1.660156 4.6875 -2.421875 C 4.78125 -3.648438 5.0625 -4.378906 5.53125 -4.609375 C 6.007812 -4.847656 6.867188 -4.96875 8.109375 -4.96875 C 10.566406 -4.96875 12.316406 -5.394531 13.359375 -6.25 C 14.398438 -7.101562 14.992188 -8.097656 15.140625 -9.234375 C 15.285156 -10.378906 15.359375 -12.179688 15.359375 -14.640625 L 15.359375 -47.203125 C 15.359375 -49.660156 15.285156 -51.457031 15.140625 -52.59375 C 14.992188 -53.726562 14.398438 -54.722656 13.359375 -55.578125 C 12.316406 -56.429688 10.566406 -56.859375 8.109375 -56.859375 C 6.960938 -56.859375 6.101562 -57.023438 5.53125 -57.359375 C 4.96875 -57.691406 4.6875 -58.472656 4.6875 -59.703125 C 4.6875 -60.273438 4.875 -60.820312 5.25 -61.34375 C 5.632812 -61.863281 6.207031 -62.171875 6.96875 -62.265625 C 12.9375 -63.117188 18.050781 -64.347656 22.3125 -65.953125 C 23.644531 -66.429688 24.738281 -66.71875 25.59375 -66.8125 L 26.015625 -66.8125 C 27.535156 -66.8125 28.296875 -65.910156 28.296875 -64.109375 L 28.296875 -14.640625 C 28.296875 -12.179688 28.390625 -10.378906 28.578125 -9.234375 C 28.765625 -8.097656 29.378906 -7.101562 30.421875 -6.25 C 31.460938 -5.394531 33.21875 -4.96875 35.6875 -4.96875 L 36.53125 -4.96875 C 37.289062 -4.96875 37.859375 -4.828125 38.234375 -4.546875 C 38.617188 -4.265625 38.859375 -3.554688 38.953125 -2.421875 C 38.953125 -1.660156 38.757812 -0.992188 38.375 -0.421875 C 38 0.140625 37.429688 0.421875 36.671875 0.421875 C 31.179688 0.140625 26.207031 0 21.75 0 C 17.488281 0 12.5625 0.140625 6.96875 0.421875 Z M 21.046875 -82.59375 C 18.390625 -82.59375 16.160156 -83.421875 14.359375 -85.078125 C 12.554688 -86.734375 11.65625 -88.796875 11.65625 -91.265625 C 11.65625 -93.441406 12.742188 -95.382812 14.921875 -97.09375 C 17.109375 -98.800781 19.578125 -99.65625 22.328125 -99.65625 C 24.691406 -99.65625 26.628906 -98.820312 28.140625 -97.15625 C 29.660156 -95.5 30.421875 -93.394531 30.421875 -90.84375 C 30.421875 -88.5625 29.519531 -86.613281 27.71875 -85 C 25.914062 -83.394531 23.691406 -82.59375 21.046875 -82.59375 Z M 21.046875 -82.59375 "/></g></g><g style="fill:#001f3f;fill-opacity:1;"><g transform="translate(287.990943, 112.027604)"><path style="stroke:none" d="M 6.96875 0.421875 C 6.300781 0.421875 5.753906 0.140625 5.328125 -0.421875 C 4.898438 -0.992188 4.6875 -1.660156 4.6875 -2.421875 C 4.78125 -3.648438 5.0625 -4.378906 5.53125 -4.609375 C 6.007812 -4.847656 6.867188 -4.96875 8.109375 -4.96875 C 10.566406 -4.96875 12.316406 -5.394531 13.359375 -6.25 C 14.398438 -7.101562 14.992188 -8.097656 15.140625 -9.234375 C 15.285156 -10.378906 15.359375 -12.179688 15.359375 -14.640625 L 15.359375 -47.203125 C 15.359375 -49.660156 15.285156 -51.457031 15.140625 -52.59375 C 14.992188 -53.726562 14.398438 -54.722656 13.359375 -55.578125 C 12.316406 -56.429688 10.566406 -56.859375 8.109375 -56.859375 C 6.960938 -56.859375 6.101562 -57.023438 5.53125 -57.359375 C 4.96875 -57.691406 4.6875 -58.472656 4.6875 -59.703125 C 4.6875 -60.273438 4.875 -60.820312 5.25 -61.34375 C 5.632812 -61.863281 6.207031 -62.171875 6.96875 -62.265625 C 13.125 -63.210938 18.191406 -64.441406 22.171875 -65.953125 C 23.785156 -66.429688 24.878906 -66.71875 25.453125 -66.8125 L 25.875 -66.8125 C 27.382812 -66.8125 28.140625 -65.910156 28.140625 -64.109375 L 28.140625 -55.15625 L 28.578125 -55.15625 C 31.328125 -57.71875 33.550781 -59.6875 35.25 -61.0625 C 36.957031 -62.4375 39.160156 -63.617188 41.859375 -64.609375 C 44.566406 -65.609375 47.765625 -66.109375 51.453125 -66.109375 C 57.898438 -66.109375 63.019531 -64.164062 66.8125 -60.28125 C 70.601562 -56.394531 72.5 -51.273438 72.5 -44.921875 L 72.5 -14.640625 C 72.5 -12.179688 72.59375 -10.378906 72.78125 -9.234375 C 72.96875 -8.097656 73.582031 -7.101562 74.625 -6.25 C 75.675781 -5.394531 77.429688 -4.96875 79.890625 -4.96875 L 80.75 -4.96875 C 81.5 -4.96875 82.0625 -4.828125 82.4375 -4.546875 C 82.820312 -4.265625 83.0625 -3.554688 83.15625 -2.421875 C 83.15625 -1.660156 82.941406 -0.992188 82.515625 -0.421875 C 82.085938 0.140625 81.546875 0.421875 80.890625 0.421875 C 75.390625 0.140625 70.410156 0 65.953125 0 C 61.691406 0 56.765625 0.140625 51.171875 0.421875 C 50.515625 0.421875 49.972656 0.140625 49.546875 -0.421875 C 49.117188 -0.992188 48.90625 -1.660156 48.90625 -2.421875 C 49 -3.648438 49.257812 -4.378906 49.6875 -4.609375 C 50.113281 -4.847656 50.941406 -4.96875 52.171875 -4.96875 C 54.640625 -4.96875 56.394531 -5.394531 57.4375 -6.25 C 58.476562 -7.101562 59.09375 -8.097656 59.28125 -9.234375 C 59.46875 -10.378906 59.5625 -12.179688 59.5625 -14.640625 L 59.5625 -44.78125 C 59.5625 -49.132812 58.1875 -52.472656 55.4375 -54.796875 C 52.6875 -57.117188 49.515625 -58.28125 45.921875 -58.28125 C 41.554688 -58.28125 37.8125 -57.210938 34.6875 -55.078125 C 31.5625 -52.953125 29.429688 -50.75 28.296875 -48.46875 L 28.296875 -14.640625 C 28.296875 -12.179688 28.390625 -10.378906 28.578125 -9.234375 C 28.765625 -8.097656 29.378906 -7.101562 30.421875 -6.25 C 31.460938 -5.394531 33.21875 -4.96875 35.6875 -4.96875 L 36.53125 -4.96875 C 37.289062 -4.96875 37.859375 -4.828125 38.234375 -4.546875 C 38.617188 -4.265625 38.859375 -3.554688 38.953125 -2.421875 C 38.953125 -1.660156 38.757812 -0.992188 38.375 -0.421875 C 38 0.140625 37.429688 0.421875 36.671875 0.421875 C 31.179688 0.140625 26.207031 0 21.75 0 C 17.488281 0 12.5625 0.140625 6.96875 0.421875 Z M 6.96875 0.421875 "/></g></g></g></svg>